<?xml version="1.0" encoding="UTF-8"?>
<svg id="Layer_2" xmlns="http://www.w3.org/2000/svg" version="1.1" xmlns:xlink="http://www.w3.org/1999/xlink" viewBox="0 0 395.97 372.13">
  <!-- Generator: Adobe Illustrator 29.5.0, SVG Export Plug-In . SVG Version: 2.1.0 Build 137)  -->
  <defs>
    <style>
      .st0 {
        fill: url(#linear-gradient2);
      }

      .st1 {
        fill: url(#linear-gradient10);
      }

      .st2 {
        fill: url(#linear-gradient1);
      }

      .st3 {
        fill: url(#linear-gradient9);
      }

      .st4 {
        fill: url(#linear-gradient8);
      }

      .st5 {
        fill: url(#linear-gradient11);
      }

      .st6 {
        fill: url(#linear-gradient16);
      }

      .st7 {
        fill: url(#linear-gradient12);
      }

      .st8 {
        fill: url(#linear-gradient7);
      }

      .st9 {
        fill: url(#linear-gradient4);
      }

      .st10 {
        fill: url(#linear-gradient14);
      }

      .st11 {
        fill: url(#linear-gradient5);
      }

      .st12 {
        fill: url(#linear-gradient3);
      }

      .st13 {
        fill: url(#linear-gradient15);
      }

      .st14 {
        fill: url(#linear-gradient6);
      }

      .st15 {
        fill: url(#linear-gradient13);
      }

      .st16 {
        fill: url(#linear-gradient);
      }
    </style>
    <linearGradient id="linear-gradient" x1="201.69" y1="66.65" x2="326.27" y2="66.65" gradientUnits="userSpaceOnUse">
      <stop offset="0" stop-color="#db4ab6"/>
      <stop offset="1" stop-color="#ff7ad5"/>
    </linearGradient>
    <linearGradient id="linear-gradient1" x1="363.95" y1="138.77" x2="365.33" y2="-5.99" gradientUnits="userSpaceOnUse">
      <stop offset="0" stop-color="#c71e1e"/>
      <stop offset="1" stop-color="#f7cb3b"/>
    </linearGradient>
    <linearGradient id="linear-gradient2" x1="263.48" y1="206.36" x2="326.93" y2="206.36" gradientUnits="userSpaceOnUse">
      <stop offset="0" stop-color="#1e0140"/>
      <stop offset=".99" stop-color="#270154"/>
    </linearGradient>
    <linearGradient id="linear-gradient3" x1="271.16" y1="31.52" x2="395.97" y2="31.52" gradientUnits="userSpaceOnUse">
      <stop offset="0" stop-color="#f7723b"/>
      <stop offset="1" stop-color="#f7cb3b"/>
    </linearGradient>
    <linearGradient id="linear-gradient4" x1="194.43" y1="155.22" x2="258.44" y2="155.22" gradientUnits="userSpaceOnUse">
      <stop offset="0" stop-color="#600f8c"/>
      <stop offset="1" stop-color="#410859"/>
    </linearGradient>
    <linearGradient id="linear-gradient5" x1="263.48" y1="120.74" x2="326.93" y2="120.74" gradientUnits="userSpaceOnUse">
      <stop offset="0" stop-color="#ff56d4"/>
      <stop offset="1" stop-color="#ff1971"/>
    </linearGradient>
    <linearGradient id="linear-gradient6" x1="163.46" y1="195.25" x2="163.46" y2="103.97" gradientUnits="userSpaceOnUse">
      <stop offset="0" stop-color="#2616b7"/>
      <stop offset="1" stop-color="#00031c"/>
    </linearGradient>
    <linearGradient id="linear-gradient7" x1="133.2" y1="101.52" x2="257.26" y2="101.52" gradientUnits="userSpaceOnUse">
      <stop offset="0" stop-color="#520d78"/>
      <stop offset="1" stop-color="#8240c4"/>
    </linearGradient>
    <linearGradient id="linear-gradient8" x1="64.57" y1="66.45" x2="188.54" y2="66.45" gradientUnits="userSpaceOnUse">
      <stop offset="0" stop-color="#211be3"/>
      <stop offset="1" stop-color="#6151ff"/>
    </linearGradient>
    <linearGradient id="linear-gradient9" x1=".38" y1="33.19" x2="120.71" y2="33.19" gradientUnits="userSpaceOnUse">
      <stop offset="0" stop-color="#145bff"/>
      <stop offset="1" stop-color="#5c4cf2"/>
    </linearGradient>
    <linearGradient id="linear-gradient10" x1="132.49" y1="320.2" x2="194.43" y2="320.2" gradientUnits="userSpaceOnUse">
      <stop offset="0" stop-color="#041b4f"/>
      <stop offset=".97" stop-color="#220bff"/>
    </linearGradient>
    <linearGradient id="linear-gradient11" x1="194.43" y1="321.41" x2="258.44" y2="321.41" gradientUnits="userSpaceOnUse">
      <stop offset="0" stop-color="#3e0e8f"/>
      <stop offset="1" stop-color="#250a59"/>
    </linearGradient>
    <linearGradient id="linear-gradient12" x1="194.43" y1="239.89" x2="258.44" y2="239.89" gradientUnits="userSpaceOnUse">
      <stop offset="0" stop-color="#501be3"/>
      <stop offset="1" stop-color="#5a4bed"/>
    </linearGradient>
    <linearGradient id="linear-gradient13" x1="163.46" y1="278.83" x2="163.46" y2="150.36" gradientUnits="userSpaceOnUse">
      <stop offset="0" stop-color="#041b4f"/>
      <stop offset="1" stop-color="#1900ff"/>
    </linearGradient>
    <linearGradient id="linear-gradient14" x1="28.96" y1="83.51" x2="28.29" y2="148.54" gradientUnits="userSpaceOnUse">
      <stop offset="0" stop-color="#041b4f"/>
      <stop offset="1" stop-color="#1a08c2"/>
    </linearGradient>
    <linearGradient id="linear-gradient15" x1="96.93" y1="264.64" x2="94.91" y2="179.89" xlink:href="#linear-gradient6"/>
    <linearGradient id="linear-gradient16" x1="64.57" y1="120.82" x2="126.44" y2="120.82" xlink:href="#linear-gradient14"/>
  </defs>
  <polygon class="st16" points="326.27 66.41 263.51 98.11 263.48 98.09 258.44 95.53 201.69 66.88 258.44 38.23 263.48 35.68 264.45 35.19 326.27 66.41"/>
  <polygon class="st2" points="395.97 31.52 395.97 104.67 339.69 136.57 333.43 139.74 332.98 139.51 332.98 63.02 389.26 34.6 395.97 31.52"/>
  <polygon class="st0" points="326.93 151.59 326.93 229.1 280.42 252.59 273.82 255.93 263.48 261.14 263.48 183.63 279.67 175.46 326.93 151.59"/>
  <polygon class="st12" points="395.97 31.52 333.64 62.71 332.98 63.04 271.16 31.81 333.64 .26 334.15 0 339.69 2.8 395.97 31.52"/>
  <polygon class="st9" points="258.44 101.86 258.44 177.6 194.43 209.17 194.43 209.17 194.43 133 195.02 132.7 257.26 101.27 258.44 101.86"/>
  <polygon class="st11" points="326.93 66.74 326.93 143.02 271.19 171.17 263.48 175.06 263.48 98.12 263.51 98.11 326.27 66.41 326.93 66.74"/>
  <polygon class="st14" points="194.43 132.98 194.43 209.74 132.49 177.88 132.49 101.84 133.2 101.48 194.43 132.98"/>
  <polygon class="st8" points="257.26 101.27 194.43 133 193.84 132.7 133.2 101.48 194.43 70.55 195.44 70.04 257.26 101.27"/>
  <polygon class="st4" points="188.54 66.55 132.49 94.87 126.44 97.91 126.3 97.98 64.57 66.81 64.57 65.89 125.88 34.91 126.44 35.19 132.49 38.25 188.54 66.55"/>
  <polygon class="st3" points="120.71 32.31 64.57 60.64 57.84 63.42 57.84 63.42 .38 34.39 57.84 5.37 62.6 2.96 64.57 3.95 120.71 32.31"/>
  <polygon class="st1" points="194.43 303.16 194.43 371.07 132.49 339.8 132.49 269.32 194.43 303.16"/>
  <polygon class="st5" points="258.44 270.69 258.44 340.87 196.53 372.13 194.43 371.07 194.43 303.03 196.83 301.81 203.76 298.32 258.44 270.69"/>
  <polygon class="st7" points="258.44 186.18 258.44 263.69 194.43 293.6 194.43 293.6 194.43 218.5 197.09 217.16 203.67 213.83 203.69 213.83 258.44 186.18"/>
  <polygon class="st15" points="194.43 218.5 194.43 293.6 132.49 262.32 132.49 184.55 194.43 218.5"/>
  <polygon class="st10" points="57.84 63.42 57.84 139.53 57.84 139.53 50.3 136.37 0 110.96 0 34.58 .38 34.39 57.84 63.42"/>
  <polygon class="st13" points="126.44 181.49 126.44 259.26 64.57 228.02 64.57 150.25 126.44 181.49"/>
  <polygon class="st6" points="126.44 98.05 126.44 174.82 119.04 171.08 64.57 143.58 64.57 66.81 126.3 97.98 126.44 98.05"/>
</svg>